<?xml version="1.0" standalone="no"?>
<!DOCTYPE svg PUBLIC "-//W3C//DTD SVG 20010904//EN"
 "http://www.w3.org/TR/2001/REC-SVG-20010904/DTD/svg10.dtd">
<svg version="1.0" xmlns="http://www.w3.org/2000/svg"
 width="512.000000pt" height="512.000000pt" viewBox="0 0 512.000000 512.000000"
 preserveAspectRatio="xMidYMid meet">
<metadata>
Created by potrace 1.14, written by Peter Selinger 2001-2017
</metadata>
<g transform="translate(0.000000,512.000000) scale(0.100000,-0.100000)"
fill="#000000" stroke="none">
<path d="M4240 4887 c-3 -3 -42 -8 -86 -11 -45 -4 -93 -9 -105 -11 -13 -2 -55
-6 -94 -10 -38 -4 -81 -9 -95 -10 -14 -2 -59 -6 -100 -10 -41 -4 -86 -9 -100
-10 -14 -1 -56 -6 -95 -10 -38 -4 -78 -9 -87 -10 -9 -2 -57 -7 -105 -10 -48
-4 -90 -9 -93 -10 -3 -2 -39 -6 -80 -10 -41 -3 -86 -8 -100 -10 -14 -2 -54 -7
-90 -10 -36 -3 -81 -8 -100 -10 -63 -7 -223 -24 -290 -30 -36 -4 -76 -8 -90
-10 -14 -2 -56 -6 -95 -10 -38 -4 -81 -9 -95 -10 -14 -2 -56 -6 -95 -10 -38
-3 -86 -8 -105 -11 -65 -8 -115 -13 -180 -19 -36 -3 -81 -7 -100 -10 -19 -2
-64 -7 -100 -10 -36 -4 -78 -8 -95 -10 -53 -7 -118 -14 -185 -20 -36 -3 -76
-8 -90 -10 -14 -2 -54 -7 -90 -10 -36 -4 -81 -8 -100 -10 -19 -2 -66 -6 -105
-10 -38 -3 -81 -8 -95 -10 -14 -3 -50 -7 -80 -10 -30 -3 -77 -8 -105 -11 -105
-11 -122 -13 -185 -19 -36 -3 -81 -8 -100 -10 -19 -3 -56 -7 -82 -9 -56 -6
-114 -29 -147 -59 -40 -37 -69 -110 -66 -170 2 -52 13 -169 20 -217 7 -48 21
-181 30 -285 4 -38 8 -81 10 -95 2 -14 6 -54 10 -90 6 -63 10 -100 20 -177 2
-21 9 -92 15 -158 6 -66 13 -131 15 -145 7 -48 15 -126 20 -190 3 -36 7 -76
10 -90 2 -14 7 -54 10 -90 8 -86 14 -157 20 -200 4 -33 10 -91 19 -170 3 -19
8 -69 11 -110 4 -41 9 -86 10 -100 14 -137 17 -168 20 -190 5 -33 12 -102 25
-230 6 -58 12 -118 15 -135 2 -16 7 -64 10 -105 3 -41 8 -86 10 -100 4 -29 12
-101 20 -180 3 -30 7 -73 10 -95 2 -22 7 -67 10 -100 3 -33 8 -71 10 -85 2
-14 6 -56 10 -95 3 -38 8 -83 10 -100 2 -16 9 -82 15 -145 15 -158 18 -175 36
-218 21 -51 58 -87 113 -110 51 -23 89 -22 311 3 19 2 62 7 95 10 33 3 71 8
85 10 14 2 57 7 95 10 68 6 112 11 185 20 19 2 66 7 103 10 37 4 76 8 85 10 9
1 53 6 97 9 44 4 91 9 105 11 14 2 57 7 95 10 39 4 84 9 100 10 17 2 55 6 86
9 31 3 72 8 90 10 19 3 61 8 94 11 145 13 172 16 200 20 17 2 57 7 90 10 33 3
76 8 95 10 19 3 64 7 100 10 36 4 83 8 105 11 160 18 194 22 275 29 36 3 81 8
100 10 19 2 62 7 95 10 33 3 71 8 85 10 14 2 54 7 90 10 36 3 81 8 100 10 45
5 121 13 190 20 30 3 78 8 105 11 28 3 66 7 85 9 126 13 159 16 190 20 19 2
67 7 105 10 39 3 81 8 95 10 24 4 60 8 178 20 122 12 204 96 206 210 0 53 -1
64 -39 410 -3 34 -9 86 -20 205 -4 40 -16 152 -21 195 -10 84 -13 112 -19 178
-4 37 -8 76 -10 85 -1 9 -6 53 -10 97 -3 44 -8 91 -10 105 -2 14 -6 56 -10 93
-3 37 -8 76 -10 85 -1 9 -6 52 -9 94 -4 42 -8 85 -10 95 -2 10 -7 59 -11 108
-4 50 -8 92 -10 95 -1 3 -6 39 -9 80 -13 145 -23 233 -31 290 -2 14 -6 59 -10
100 -4 41 -8 86 -10 100 -2 14 -6 51 -9 83 -3 31 -9 83 -12 115 -3 31 -7 68
-9 82 -2 14 -7 58 -10 98 -4 41 -8 81 -10 90 -1 9 -6 51 -9 92 -4 41 -9 91
-11 110 -2 19 -7 60 -10 90 -3 30 -8 71 -11 90 -2 19 -6 58 -9 85 -2 28 -6 73
-9 100 -3 28 -8 74 -11 102 -3 29 -7 67 -9 85 -4 33 -13 114 -21 195 -9 87
-57 161 -125 190 -36 15 -112 28 -120 20z"/>
</g>
</svg>
